<mxfile host="app.diagrams.net" agent="Mozilla/5.0 (Windows NT 10.0; Win64; x64) AppleWebKit/537.36 (KHTML, like Gecko) Chrome/130.0.0.0 Safari/537.36 Edg/130.0.0.0" version="24.8.3">
  <diagram name="Page-1" id="WstC73n8Oom1PV-vR1h7">
    <mxGraphModel dx="1246" dy="681" grid="1" gridSize="10" guides="1" tooltips="1" connect="1" arrows="1" fold="1" page="1" pageScale="1" pageWidth="850" pageHeight="1100" math="0" shadow="0">
      <root>
        <mxCell id="0" />
        <mxCell id="1" parent="0" />
        <mxCell id="2G3n_5WbKkJMEVWbCkhm-5" style="edgeStyle=orthogonalEdgeStyle;rounded=0;orthogonalLoop=1;jettySize=auto;html=1;entryX=0;entryY=0.5;entryDx=0;entryDy=0;" parent="1" edge="1">
          <mxGeometry relative="1" as="geometry">
            <mxPoint x="160" y="251" as="sourcePoint" />
            <mxPoint x="250.00000000000023" y="251" as="targetPoint" />
          </mxGeometry>
        </mxCell>
        <mxCell id="2G3n_5WbKkJMEVWbCkhm-1" value="Producer" style="whiteSpace=wrap;html=1;aspect=fixed;" parent="1" vertex="1">
          <mxGeometry x="80" y="210" width="80" height="80" as="geometry" />
        </mxCell>
        <mxCell id="2G3n_5WbKkJMEVWbCkhm-6" style="edgeStyle=orthogonalEdgeStyle;rounded=0;orthogonalLoop=1;jettySize=auto;html=1;entryX=0;entryY=0.5;entryDx=0;entryDy=0;" parent="1" edge="1">
          <mxGeometry relative="1" as="geometry">
            <mxPoint x="330.0000000000002" y="251" as="sourcePoint" />
            <mxPoint x="419.9999999999998" y="251" as="targetPoint" />
          </mxGeometry>
        </mxCell>
        <mxCell id="2G3n_5WbKkJMEVWbCkhm-2" value="Kafka" style="whiteSpace=wrap;html=1;aspect=fixed;" parent="1" vertex="1">
          <mxGeometry x="250" y="210" width="80" height="80" as="geometry" />
        </mxCell>
        <mxCell id="2G3n_5WbKkJMEVWbCkhm-3" value="Consumer" style="whiteSpace=wrap;html=1;aspect=fixed;" parent="1" vertex="1">
          <mxGeometry x="420" y="210" width="80" height="80" as="geometry" />
        </mxCell>
        <mxCell id="2G3n_5WbKkJMEVWbCkhm-4" value="Zookeeper" style="whiteSpace=wrap;html=1;aspect=fixed;" parent="1" vertex="1">
          <mxGeometry x="250" y="351" width="80" height="80" as="geometry" />
        </mxCell>
        <mxCell id="2G3n_5WbKkJMEVWbCkhm-7" value="" style="endArrow=none;dashed=1;html=1;dashPattern=1 3;strokeWidth=2;rounded=0;entryX=0.5;entryY=1;entryDx=0;entryDy=0;exitX=0.5;exitY=0;exitDx=0;exitDy=0;" parent="1" source="2G3n_5WbKkJMEVWbCkhm-4" edge="1">
          <mxGeometry width="50" height="50" relative="1" as="geometry">
            <mxPoint x="390" y="391" as="sourcePoint" />
            <mxPoint x="290.0000000000002" y="291" as="targetPoint" />
            <Array as="points">
              <mxPoint x="290" y="301" />
            </Array>
          </mxGeometry>
        </mxCell>
        <mxCell id="2G3n_5WbKkJMEVWbCkhm-8" value="&lt;li&gt;&lt;strong&gt;Producer&lt;/strong&gt;: Menunjukkan layanan yang mengirim pesan (food orders)&amp;nbsp; ke &lt;strong&gt;Kafka&lt;/strong&gt;.&lt;/li&gt;&lt;li&gt;&lt;strong&gt;Kafka&lt;/strong&gt;: Menunjukkan broker yang menerima dan menyimpan pesan.&lt;/li&gt;&lt;li&gt;&lt;strong&gt;Consumer&lt;/strong&gt;: Menunjukkan layanan yang membaca dan memproses pesan.&lt;/li&gt;&lt;li&gt;&lt;strong&gt;Zookeeper&lt;/strong&gt;: Menunjukkan manajemen kluster Kafka,&amp;nbsp;membantu dalam manajemen dan koordinasi antar broker Kafka untuk memastikan sistem berjalan dengan baik.&lt;/li&gt;" style="text;html=1;align=left;verticalAlign=middle;whiteSpace=wrap;rounded=0;" parent="1" vertex="1">
          <mxGeometry x="80" y="80" width="450" height="60" as="geometry" />
        </mxCell>
        <mxCell id="2G3n_5WbKkJMEVWbCkhm-9" value="&lt;li&gt;&lt;span style=&quot;background-color: initial;&quot;&gt;Arrows menunjukkan aliran pesan dari Producer ke Kafka, kemudian dari Kafka ke Consumer.&lt;/span&gt;&lt;/li&gt;&lt;li&gt;Anda bisa menambahkan label pada panah untuk menunjukkan jenis pesan (&quot;food orders&quot;).&lt;/li&gt;" style="text;html=1;align=left;verticalAlign=middle;whiteSpace=wrap;rounded=0;" parent="1" vertex="1">
          <mxGeometry x="10" y="470" width="580" height="60" as="geometry" />
        </mxCell>
        <mxCell id="2G3n_5WbKkJMEVWbCkhm-10" value="&lt;strong style=&quot;background-color: initial;&quot;&gt;Menjelaskan Aliran Pesan&lt;/strong&gt;&lt;span style=&quot;background-color: initial;&quot;&gt;:&lt;/span&gt;" style="text;html=1;align=left;verticalAlign=middle;whiteSpace=wrap;rounded=0;" parent="1" vertex="1">
          <mxGeometry x="10" y="440" width="580" height="60" as="geometry" />
        </mxCell>
        <mxCell id="2G3n_5WbKkJMEVWbCkhm-11" value="&lt;b&gt;Komponen yang dimasukkan&lt;/b&gt;" style="text;html=1;align=left;verticalAlign=middle;whiteSpace=wrap;rounded=0;" parent="1" vertex="1">
          <mxGeometry x="80" y="13" width="580" height="60" as="geometry" />
        </mxCell>
      </root>
    </mxGraphModel>
  </diagram>
</mxfile>
